<svg width="140" height="23" viewBox="0 0 140 23" fill="none" xmlns="http://www.w3.org/2000/svg">
<path fill-rule="evenodd" clip-rule="evenodd" d="M79.1446 15.9499L74.1979 3.08154H70.8394C70.8263 3.09902 70.8217 3.10526 70.8086 3.12261L77.3801 19.5082H80.9927L87.4492 3.12249C87.4361 3.10513 87.4314 3.09889 87.4184 3.08154L84.1532 3.08167L79.2063 15.9499H79.1446Z" fill="black"/>
<path fill-rule="evenodd" clip-rule="evenodd" d="M137.837 11.6727L132.428 8.57142C131.949 8.29631 131.614 7.81873 131.622 7.29459C131.633 6.51867 132.315 5.89043 133.152 5.89043H138.854V3.08136H133.288C130.735 3.08136 128.552 5.02476 128.602 7.39919C128.633 8.84541 129.437 10.1553 130.764 10.9166L136.252 14.0636C136.7 14.3204 136.97 14.7628 136.979 15.2504C136.993 16.0472 136.233 16.6989 135.376 16.6989H130.07L128.271 19.4617C128.283 19.4824 128.286 19.4873 128.299 19.508H135.312C137.865 19.508 140.047 17.5651 139.998 15.1913C139.968 13.7446 139.165 12.4339 137.837 11.6727Z" fill="black"/>
<path fill-rule="evenodd" clip-rule="evenodd" d="M116.496 16.699V3.08154H113.477V19.5083H122.502L124.302 16.7453C124.29 16.7246 124.287 16.7197 124.274 16.699H116.496Z" fill="black"/>
<path fill-rule="evenodd" clip-rule="evenodd" d="M39.3401 16.6994V3.08197H36.3203V19.5087H45.3459L47.146 16.7457C47.1335 16.725 47.1306 16.7201 47.118 16.6994H39.3401Z" fill="black"/>
<path fill-rule="evenodd" clip-rule="evenodd" d="M54.25 3.00635V19.608V19.6081H64.498V19.608V16.7689H57.0087V12.7268H63.4757V9.88755H57.0087V5.84557H64.498V3.00635H54.25Z" fill="black"/>
<path fill-rule="evenodd" clip-rule="evenodd" d="M93.9609 3.00635V19.608V19.6081H104.209V19.608V16.769H96.7196V12.7267H103.187V9.8876H96.7196V5.84547H104.209V3.00635H93.9609Z" fill="black"/>
<path fill-rule="evenodd" clip-rule="evenodd" d="M7.57122 0L0 2.35541V22.1935C0.0166242 22.2065 0.02335 22.2115 0.0399741 22.2246L7.6112 19.8689V0.0311041C7.59445 0.0180776 7.58785 0.0130265 7.57122 0Z" fill="black"/>
<path fill-rule="evenodd" clip-rule="evenodd" d="M9.90234 13.0232V22.1934C9.91897 22.2063 9.92557 22.2115 9.94232 22.2245L17.5134 19.8691V10.6986C17.4968 10.6856 17.4902 10.6804 17.4736 10.6675L9.90234 13.0232Z" fill="black"/>
</svg>
